<?xml version="1.0" standalone="no"?>
<!DOCTYPE svg PUBLIC "-//W3C//DTD SVG 20010904//EN"
 "http://www.w3.org/TR/2001/REC-SVG-20010904/DTD/svg10.dtd">
<svg version="1.0" xmlns="http://www.w3.org/2000/svg"
 width="300.000000pt" height="300.000000pt" viewBox="0 0 300.000000 300.000000"
 preserveAspectRatio="xMidYMid meet">
<metadata>
Created by potrace 1.14, written by Peter Selinger 2001-2017
</metadata>
<g transform="translate(0.000000,300.000000) scale(0.100000,-0.100000)"
fill="#000000" stroke="none">
<path d="M0 1500 l0 -1500 734 0 c578 0 735 3 739 13 4 9 6 9 6 0 1 -10 160
-13 761 -13 l760 0 0 1500 0 1500 -1500 0 -1499 0 -1 -1500z m38 715 c-3 -3
-9 2 -12 12 -6 14 -5 15 5 6 7 -7 10 -15 7 -18z m-7 -38 c-10 -9 -11 -8 -5 6
3 10 9 15 12 12 3 -3 0 -11 -7 -18z m114 -161 c22 -8 34 -15 28 -15 -32 -2
-89 32 -106 62 l-17 32 27 -32 c16 -18 46 -39 68 -47z m102 -31 c44 -19 87
-20 77 -2 -6 10 -4 10 7 0 7 -7 21 -13 32 -13 10 0 16 -4 13 -8 -9 -15 14 -97
31 -109 29 -22 41 -14 58 37 9 28 22 50 30 50 7 0 31 -20 54 -45 22 -24 41
-39 41 -33 0 7 -12 25 -27 40 -15 15 -22 28 -16 28 6 0 18 -11 27 -24 9 -14
35 -49 59 -78 50 -62 87 -156 87 -222 l0 -46 -44 0 c-40 0 -45 3 -55 31 -9 27
-15 30 -43 28 -74 -5 -96 0 -103 24 -4 12 -20 39 -36 59 -28 36 -28 37 -14 79
8 23 14 43 13 44 -42 23 -57 39 -63 67 -13 66 -14 68 -53 68 -34 0 -154 38
-124 40 7 0 29 -7 49 -15z m1153 -68 c25 -9 24 -10 -17 -29 -24 -10 -43 -24
-43 -31 0 -18 93 -98 107 -93 24 9 13 -12 -19 -39 l-31 -27 37 -69 37 -69 -63
0 -64 0 -29 49 c-17 27 -33 47 -37 44 -5 -2 -8 -24 -8 -49 l0 -45 -57 3 -58 3
-3 70 c-1 39 1 113 5 165 7 84 10 95 28 98 11 2 25 9 30 16 6 7 17 15 25 18
21 7 130 -3 160 -15z m358 12 c20 -7 40 -26 55 -52 14 -23 34 -51 46 -61 12
-11 21 -30 21 -42 l0 -24 -47 21 c-27 12 -65 30 -85 40 -74 38 -116 20 -134
-56 -4 -16 -15 -41 -26 -54 -10 -13 -18 -39 -18 -58 0 -44 -18 -40 -47 13 -50
88 -18 220 65 264 42 22 122 26 170 9z m332 -13 c0 -27 -22 -76 -35 -76 -10 0
-9 10 4 45 15 44 31 59 31 31z m-48 -121 c2 -19 0 -42 -5 -50 -6 -12 -1 -15
30 -15 44 -1 74 -15 101 -50 19 -25 62 -104 62 -115 0 -3 -27 -5 -59 -5 l-60
0 -33 62 -33 63 -5 -60 -5 -60 -49 -3 -49 -3 5 64 c4 45 1 69 -8 82 -8 10 -14
30 -14 43 0 18 4 22 18 18 12 -4 29 5 52 29 19 19 37 35 41 35 4 0 9 -16 11
-35z m364 -12 c13 -8 24 -20 24 -27 -1 -10 -130 -79 -137 -72 -2 1 4 19 12 39
8 21 22 53 30 73 14 33 16 35 31 19 9 -9 27 -23 40 -32z m-1328 -13 c17 -11
32 -24 32 -30 0 -13 -27 -13 -35 0 -3 5 -24 14 -46 20 -22 6 -37 15 -34 20 10
16 48 11 83 -10z m-191 -16 c-11 -11 -99 -24 -111 -16 -6 4 14 10 44 13 30 3
59 6 64 7 5 1 7 -1 3 -4z m-90 -276 c-3 -8 -6 -5 -6 6 -1 11 2 17 5 13 3 -3 4
-12 1 -19z m0 -40 c-3 -8 -6 -5 -6 6 -1 11 2 17 5 13 3 -3 4 -12 1 -19z m-30
-33 c-15 -32 -27 -32 -27 0 0 18 5 25 19 25 17 0 18 -3 8 -25z m279 10 c25
-19 15 -19 -27 0 -25 10 -29 14 -13 15 11 0 29 -7 40 -15z m294 -30 l0 -45
-37 0 c-20 0 -62 -5 -93 -12 -72 -14 -111 -3 -122 37 -5 21 -3 34 9 47 14 15
33 18 130 18 l113 0 0 -45z m225 20 c66 -8 85 -18 85 -45 0 -16 -5 -17 -37 -9
-51 12 -110 11 -118 -1 -15 -24 -27 -8 -20 27 8 45 15 59 24 45 3 -5 33 -13
66 -17z m304 -12 c-12 -21 -25 -42 -30 -46 -4 -5 4 -35 17 -68 26 -63 30 -94
14 -104 -6 -4 -10 8 -10 29 0 48 -28 114 -51 121 -10 4 -19 10 -19 15 0 5 6 7
14 4 8 -3 23 12 40 40 15 25 32 46 37 46 6 0 1 -17 -12 -37z m355 -22 c-4 -17
-9 -30 -11 -27 -3 2 -2 19 2 36 4 17 9 30 11 27 2 -2 1 -18 -2 -36z m3 -181
c-4 -20 -27 84 -26 118 1 15 7 -2 15 -38 8 -36 13 -72 11 -80z m-892 -89 c-4
-23 -11 -41 -16 -41 -8 0 -6 22 8 73 9 33 15 9 8 -32z m895 9 c0 -13 -60 -13
-80 0 -11 7 -2 10 33 10 26 0 47 -4 47 -10z m-990 -269 c0 -32 -6 -24 -14 19
-4 25 -3 31 4 20 5 -8 10 -26 10 -39z m-5 -141 c10 -11 16 -20 13 -20 -3 0
-13 9 -23 20 -10 11 -16 20 -13 20 3 0 13 -9 23 -20z m32 -87 c-3 -10 -5 -4
-5 12 0 17 2 24 5 18 2 -7 2 -21 0 -30z m-10 -37 c-3 -7 1 -25 8 -40 17 -32
11 -34 -10 -2 -13 20 -12 56 2 56 3 0 3 -6 0 -14z m134 -43 c13 -16 12 -17 -3
-4 -17 13 -22 21 -14 21 2 0 10 -8 17 -17z m-64 -107 c15 -8 23 -15 17 -16
-19 0 -64 41 -63 58 0 13 3 11 9 -5 5 -12 22 -29 37 -37z m58 -27 c11 -16 1
-19 -13 -3 -7 8 -8 14 -3 14 5 0 13 -5 16 -11z m145 -34 c13 -14 21 -25 18
-25 -2 0 -15 11 -28 25 -13 14 -21 25 -18 25 2 0 15 -11 28 -25z m-120 -30
c14 -19 14 -19 -2 -6 -10 7 -18 18 -18 24 0 6 1 8 3 6 1 -2 9 -13 17 -24z m40
-55 c12 -16 19 -30 16 -30 -2 0 -14 14 -26 30 -12 17 -19 30 -16 30 2 0 14
-13 26 -30z m58 -125 l27 -30 -32 29 c-25 22 -33 37 -32 60 l2 31 4 -30 c3
-16 17 -43 31 -60z m387 35 c10 -11 16 -20 13 -20 -3 0 -13 9 -23 20 -10 11
-16 20 -13 20 3 0 13 -9 23 -20z m86 -57 c13 -16 12 -17 -3 -4 -17 13 -22 21
-14 21 2 0 10 -8 17 -17z m-475 -60 c-8 -15 -15 -25 -16 -21 0 12 23 58 27 54
3 -2 -2 -17 -11 -33z m550 -15 l29 -33 -32 29 c-31 28 -38 36 -30 36 2 0 16
-15 33 -32z"/>
<path d="M536 1766 c-3 -13 -9 -31 -12 -40 -5 -13 1 -16 26 -16 25 0 31 3 26
16 -3 9 -9 27 -12 40 -3 13 -10 24 -14 24 -4 0 -11 -11 -14 -24z"/>
<path d="M1288 1832 c-25 -10 -8 -28 30 -34 37 -5 50 6 32 27 -13 16 -34 18
-62 7z"/>
</g>
</svg>
